<mxfile host="65bd71144e">
    <diagram id="69MzIA3v5r1ZwzmeeRJY" name="第 1 页">
        <mxGraphModel dx="769" dy="689" grid="1" gridSize="10" guides="1" tooltips="1" connect="1" arrows="1" fold="1" page="1" pageScale="1" pageWidth="1169" pageHeight="827" math="0" shadow="0">
            <root>
                <mxCell id="0"/>
                <mxCell id="1" parent="0"/>
                <mxCell id="32" value="开始" style="rounded=1;whiteSpace=wrap;html=1;" vertex="1" parent="1">
                    <mxGeometry x="200" y="40" width="160" height="40" as="geometry"/>
                </mxCell>
                <mxCell id="33" value="收到列车到达信息&lt;br&gt;(@XAxisTime&amp;amp;)" style="rounded=0;whiteSpace=wrap;html=1;" vertex="1" parent="1">
                    <mxGeometry x="200" y="120" width="160" height="40" as="geometry"/>
                </mxCell>
                <mxCell id="34" value="接收车号信息" style="rounded=0;whiteSpace=wrap;html=1;" vertex="1" parent="1">
                    <mxGeometry x="200" y="200" width="160" height="40" as="geometry"/>
                </mxCell>
                <mxCell id="35" value="&lt;div&gt;列车离开信息&lt;/div&gt;&lt;div&gt;(@OAxisTime&amp;amp;)&lt;/div&gt;" style="rounded=0;whiteSpace=wrap;html=1;" vertex="1" parent="1">
                    <mxGeometry x="200" y="280" width="160" height="40" as="geometry"/>
                </mxCell>
                <mxCell id="36" value="结束" style="rounded=1;whiteSpace=wrap;html=1;" vertex="1" parent="1">
                    <mxGeometry x="200" y="360" width="160" height="40" as="geometry"/>
                </mxCell>
                <mxCell id="37" value="" style="endArrow=classic;html=1;exitX=0.5;exitY=1;exitDx=0;exitDy=0;" edge="1" parent="1" source="32" target="33">
                    <mxGeometry width="50" height="50" relative="1" as="geometry">
                        <mxPoint x="440" y="450" as="sourcePoint"/>
                        <mxPoint x="490" y="400" as="targetPoint"/>
                    </mxGeometry>
                </mxCell>
                <mxCell id="39" value="" style="endArrow=classic;html=1;exitX=0.5;exitY=1;exitDx=0;exitDy=0;entryX=0.5;entryY=0;entryDx=0;entryDy=0;" edge="1" parent="1" source="33" target="34">
                    <mxGeometry width="50" height="50" relative="1" as="geometry">
                        <mxPoint x="290" y="90" as="sourcePoint"/>
                        <mxPoint x="290" y="130" as="targetPoint"/>
                    </mxGeometry>
                </mxCell>
                <mxCell id="40" value="" style="endArrow=classic;html=1;exitX=0.5;exitY=1;exitDx=0;exitDy=0;" edge="1" parent="1" source="34" target="35">
                    <mxGeometry width="50" height="50" relative="1" as="geometry">
                        <mxPoint x="440" y="330" as="sourcePoint"/>
                        <mxPoint x="490" y="280" as="targetPoint"/>
                    </mxGeometry>
                </mxCell>
                <mxCell id="41" value="" style="endArrow=classic;html=1;exitX=0.5;exitY=1;exitDx=0;exitDy=0;entryX=0.5;entryY=0;entryDx=0;entryDy=0;" edge="1" parent="1" source="35" target="36">
                    <mxGeometry width="50" height="50" relative="1" as="geometry">
                        <mxPoint x="440" y="330" as="sourcePoint"/>
                        <mxPoint x="490" y="280" as="targetPoint"/>
                    </mxGeometry>
                </mxCell>
            </root>
        </mxGraphModel>
    </diagram>
</mxfile>